HIERARCHY
ROOT Hips
{
	OFFSET -3.958830 18.904000 13.208200
	CHANNELS 6 Xposition Yposition Zposition Zrotation Yrotation Xrotation 
	JOINT LHipJoint
	{
		OFFSET 0.000000 0.000000 0.000000
		CHANNELS 3 Zrotation Yrotation Xrotation
		JOINT LeftUpLeg
		{
			OFFSET 1.800000 -1.400000 0.085000
			CHANNELS 3 Zrotation Yrotation Xrotation
			JOINT LeftLeg
			{
				OFFSET 2.215000 -6.000000 0.000000
				CHANNELS 3 Zrotation Yrotation Xrotation
				JOINT LeftFoot
				{
					OFFSET 2.500000 -6.900000 0.000000
					CHANNELS 3 Zrotation Yrotation Xrotation
					JOINT LeftToeBase
					{
						OFFSET 0.200000 -0.500000 1.950000
						CHANNELS 3 Zrotation Yrotation Xrotation
						End Site
						{
							OFFSET 0.000000 0.000000 0.000000
						}
					}
				}
			}
		}
	}
	JOINT RHipJoint
	{
		OFFSET 0.000000 0.000000 0.000000
		CHANNELS 3 Zrotation Yrotation Xrotation
		JOINT RightUpLeg
		{
			OFFSET -1.800000 -1.400000 0.085000
			CHANNELS 3 Zrotation Yrotation Xrotation
			JOINT RightLeg
			{
				OFFSET -2.215000 -6.000000 0.000000
				CHANNELS 3 Zrotation Yrotation Xrotation
				JOINT RightFoot
				{
					OFFSET -2.500000 -6.900000 0.000000
					CHANNELS 3 Zrotation Yrotation Xrotation
					JOINT RightToeBase
					{
						OFFSET -0.200000 -0.500000 1.950000
						CHANNELS 3 Zrotation Yrotation Xrotation
						End Site
						{
							OFFSET 0.000000 0.000000 0.000000
						}
					}
				}
			}
		}
	}
	JOINT LowerBack
	{
		OFFSET 0.000000 0.000000 0.000000
		CHANNELS 3 Zrotation Yrotation Xrotation
		JOINT Spine
		{
			OFFSET -0.087000 1.940000 -0.288900
			CHANNELS 3 Zrotation Yrotation Xrotation
			JOINT Spine1
			{
				OFFSET 0.000000 1.950000 0.060000
				CHANNELS 3 Zrotation Yrotation Xrotation
				JOINT Neck
				{
					OFFSET 0.000000 0.000000 0.000000
					CHANNELS 3 Zrotation Yrotation Xrotation
					JOINT Neck1
					{
						OFFSET 0.000000 1.600000 0.340000
						CHANNELS 3 Zrotation Yrotation Xrotation
						JOINT Head
						{
							OFFSET 0.000000 1.667000 -0.240000
							CHANNELS 3 Zrotation Yrotation Xrotation
							End Site
							{
								OFFSET 0.000000 0.000000 0.000000
							}
						}
					}
				}
				JOINT LeftShoulder
				{
					OFFSET 0.000000 0.000000 0.000000
					CHANNELS 3 Zrotation Yrotation Xrotation
					JOINT LeftArm
					{
						OFFSET 2.700000 1.550000 -0.730000
						CHANNELS 3 Zrotation Yrotation Xrotation
						JOINT LeftForeArm
						{
							OFFSET 5.450000 0.000000 0.000000
							CHANNELS 3 Zrotation Yrotation Xrotation
							JOINT LeftHand
							{
								OFFSET 3.450000 0.000000 0.000000
								CHANNELS 3 Zrotation Yrotation Xrotation
								JOINT LeftHandIndex1
								{
									OFFSET 0.750000 0.000000 0.000000
									CHANNELS 3 Zrotation Yrotation Xrotation
									End Site
									{
										OFFSET 0.000000 0.000000 0.000000
									}
								}
							}
						}
					}
				}
				JOINT RightShoulder
				{
					OFFSET 0.000000 0.000000 0.000000
					CHANNELS 3 Zrotation Yrotation Xrotation
					JOINT RightArm
					{
						OFFSET -2.700000 1.550000 -0.730000
						CHANNELS 3 Zrotation Yrotation Xrotation
						JOINT RightForeArm
						{
							OFFSET -5.450000 0.000000 0.000000
							CHANNELS 3 Zrotation Yrotation Xrotation
							JOINT RightHand
							{
								OFFSET -3.450000 0.000000 0.000000
								CHANNELS 3 Zrotation Yrotation Xrotation
								JOINT RightHandIndex1
								{
									OFFSET -0.750000 0.000000 0.000000
									CHANNELS 3 Zrotation Yrotation Xrotation
									End Site
									{
										OFFSET 0.000000 0.000000 0.000000
									}
								}
							}
						}
					}
				}
			}
		}
	}
}
MOTION
Frames: 6
Frame Time: 0.016667
-0.334000 17.474830 -3.061970 -3.019550 22.580136 -7.613979 -15.444050 13.008825 2.457864 2.091301 -3.945607 -16.687907 0.161474 7.134411 35.835373 -0.114713 5.653986 2.524269 0.954390 0.630780 0.748410 18.157493 -8.730883 5.409370 -20.890659 8.373555 -44.513250 13.824864 -28.588687 78.102079 -2.989408 -14.171318 0.017210 0.212800 -0.312980 0.055470 -3.314622 -3.403797 -9.215503 4.568146 -2.896755 34.013667 -1.170201 -1.932841 2.180422 1.659833 -4.783831 -13.498987 -13.302137 0.531441 49.934561 9.818740 -5.174200 -27.590520 -31.449899 -19.683805 6.374264 -39.833450 -2.316229 -13.730377 -44.622023 -64.479880 19.898805 -2.756298 3.376377 0.953750 -0.441970 0.364420 0.213080 28.844550 25.863202 9.927350 46.848956 7.080112 -9.613244 -9.043187 21.030791 -2.720257 2.129329 -1.288868 0.009320 0.193220 -0.393780 -0.288990 
-0.315140 17.476920 -3.045080 -3.582746 23.040588 -8.094967 -15.423144 13.019183 2.400540 2.737236 -3.881344 -16.158620 -0.065483 7.138403 35.428580 -0.114612 5.635836 2.546540 0.955130 0.632120 0.743260 18.179150 -8.714275 5.454873 -20.158732 8.340026 -45.244601 13.416091 -29.014796 79.221131 -3.052838 -14.365120 -0.009029 0.211280 -0.292940 0.050250 -3.389877 -3.405208 -9.221706 5.284251 -3.502574 34.235525 -1.859385 -2.198660 2.433423 1.775576 -4.864016 -13.576953 -13.782256 0.517228 50.301924 10.540460 -5.615000 -27.558630 -32.029445 -20.162043 6.303090 -39.146606 -3.277619 -13.705576 -43.664451 -65.502950 19.759468 -2.732431 3.381210 0.951220 -0.438480 0.361300 0.224890 29.147626 26.058656 10.229479 46.647869 6.244502 -9.758888 -9.724828 20.796773 -2.781668 2.125182 -1.282611 0.007190 0.215640 -0.395610 -0.278910 
-0.267910 17.500750 -3.024690 -4.805722 24.833482 -9.721328 -15.371527 13.083292 2.284394 4.075249 -3.843173 -14.665038 -0.283560 6.955626 34.541045 -0.133035 5.563924 2.582341 0.959780 0.649060 0.720000 18.221821 -8.696105 5.505118 -18.697651 7.866265 -46.173103 13.062882 -30.429791 81.188880 -3.203930 -14.787367 -0.087502 0.219050 -0.276730 0.031360 -3.591059 -3.475994 -9.210946 7.050585 -5.594064 35.472822 -3.876922 -3.349809 3.514941 2.173507 -5.576145 -14.549837 -16.183934 1.411002 51.690156 12.959210 -6.373620 -28.445080 -33.788551 -22.398432 6.773592 -36.884157 -4.536687 -14.912280 -40.763185 -68.916562 18.625731 -2.549873 3.469544 0.971150 -0.462620 0.372120 0.238220 30.030571 27.861261 11.481428 45.471047 4.384966 -9.953475 -11.119882 19.796614 -2.771896 2.122193 -1.264307 0.002090 0.257700 -0.389250 -0.259600 
-0.233230 17.521870 -2.994010 -5.459729 26.660037 -10.583718 -15.351806 13.120045 2.245137 4.926946 -4.105565 -13.549580 -0.638176 6.839077 33.899301 -0.167315 5.562395 2.620538 0.921260 0.608250 0.696690 18.235945 -8.710825 5.486203 -16.440945 7.190892 -47.681258 11.669936 -30.488600 82.627032 -3.230355 -14.951711 -0.098951 0.220930 -0.226470 -0.025140 -3.699479 -3.509550 -9.201403 7.111897 -6.983308 36.381760 -5.448828 -4.212884 4.144568 2.349943 -5.068085 -15.018160 -15.733058 1.209589 51.375771 14.777510 -6.527150 -27.737070 -36.363619 -24.307043 7.295840 -33.481812 -6.781576 -15.402031 -40.810840 -73.862636 19.816615 -2.370492 3.611893 0.972730 -0.446580 0.327780 0.239190 32.058187 28.439794 12.276398 43.136385 2.332716 -8.521258 -10.837396 16.206176 -1.985462 2.149509 -1.229744 -0.060090 0.319150 -0.373070 -0.268990 
-0.215040 17.558920 -2.938980 -6.162313 26.646846 -11.070142 -15.324587 13.152495 2.214431 6.839225 -4.061759 -12.278175 -2.521589 7.371599 32.420134 -0.127639 5.623352 2.625570 0.901800 0.600970 0.665830 18.249091 -8.757540 5.430507 -12.501113 7.732366 -48.975627 10.521627 -29.126734 82.306106 -3.181383 -14.770676 -0.022629 0.204200 -0.170250 -0.000080 -3.763230 -3.444450 -9.171257 6.806737 -7.605029 36.732817 -6.384348 -4.390398 4.456196 2.336104 -4.411048 -14.988977 -14.607698 0.701258 50.050226 14.687020 -6.318240 -26.242490 -37.303899 -25.336228 7.333426 -31.700102 -9.117975 -15.190183 -30.982686 -78.659102 13.663077 -2.498403 3.534261 0.921970 -0.390850 0.305960 0.261870 32.843055 28.333674 12.731858 42.146922 0.856800 -6.650067 -9.749979 11.746602 -1.078075 2.199367 -1.225847 -0.043440 0.319250 -0.368550 -0.243300 
-0.199590 17.614870 -2.878660 -7.033076 26.415230 -11.359804 -15.286891 13.178678 2.223016 9.014539 -4.084867 -11.199054 -4.472040 7.854921 30.546228 -0.144212 5.712226 2.626175 0.866420 0.553470 0.619310 18.270106 -8.831342 5.307821 -8.023909 8.272198 -49.494100 9.483117 -27.245863 80.676461 -3.050456 -14.320184 0.103589 0.196310 -0.092280 -0.000150 -3.848509 -3.398323 -9.119191 6.764686 -8.500845 36.242184 -7.056448 -4.705422 5.350688 2.101682 -4.189230 -15.203709 -14.423687 0.843130 48.749681 15.517620 -6.381880 -24.294270 -37.016458 -27.120599 7.043739 -31.370005 -10.975971 -15.521085 -2.100521 -81.227096 -7.738402 -2.731699 3.123132 0.902250 -0.340910 0.257380 0.283420 32.904211 29.027761 13.728141 41.421257 -0.607687 -4.950067 -7.291682 7.622389 -0.263727 2.225986 -1.195597 -0.078460 0.349070 -0.341590 -0.235100 
